<?xml version="1.0" encoding="utf-8" standalone="yes"?>
<!DOCTYPE svg PUBLIC "-//W3C//DTD SVG 1.1//EN" "http://www.w3.org/Graphics/SVG/1.1/DTD/svg11.dtd">
<svg width="816" height="408" viewBox="0 0 816 408" style="fill:none;stroke:none;fill-rule:evenodd;clip-rule:evenodd;stroke-linecap:round;stroke-linejoin:round;stroke-miterlimit:1.5;" version="1.1" xmlns="http://www.w3.org/2000/svg" xmlns:xlink="http://www.w3.org/1999/xlink"><style class="text-font-style fontImports" data-font-family="Roboto">@import url('https://fonts.googleapis.com/css2?family=Roboto:wght@400;700&amp;display=block');</style><g id="items" style="isolation: isolate"><g id="blend" style="mix-blend-mode: normal"><g id="g-root-sy_5_cu_144w1i5vykrgq-fill" data-item-order="-71449" transform="translate(463.24951171875, 223.755859375)"><g id="sy_5_cu_144w1i5vykrgq-fill" stroke="none" fill="url(#gradient-fdac61-172712277)"><g><path d="M 21.3646 112.332C 20.3601 99.7068 16.3302 87.9343 10 77.7392L 103.3361 10C 123.34 39.3254 135.429 74.4805 136.529 112.391L 21.3646 112.332Z"></path></g></g></g><g id="g-root-sy_4_cu_me8i3hvykqo3-fill" data-item-order="-71445" transform="translate(427, 151)"><g id="sy_4_cu_me8i3hvykqo3-fill" stroke="none" fill="url(#gradient-ffed4b-499785973)"><g><path d="M 39.4485 141.169C 31.5362 131.856 21.4613 124.437 10 119.689L 45.5779 10C 80.4046 22.4662 110.58 44.7084 132.798 73.42L 39.4485 141.169Z"></path></g></g></g><g id="g-root-sy_3_cu_92rzq5vyks90-fill" data-item-order="-71441" transform="translate(343.9873046875, 140)"><g id="sy_3_cu_92rzq5vyks90-fill" stroke="none" fill="url(#gradient-bceb57-497517668)"><g><path d="M 82.0987 127.265C 76.1178 125.785 69.8631 125 63.425 125C 57.2918 125 51.3251 125.712 45.6029 127.059L 10 17.6761C 27.1074 12.6796 45.2033 10 63.925 10C 82.578 10 100.6097 12.6599 117.662 17.6212L 82.0987 127.265Z"></path></g></g></g><g id="g-root-sy_2_cu_1ut20f1vykqh1-fill" data-item-order="-71437" transform="translate(245.9755859375, 151.24609375)"><g id="sy_2_cu_1ut20f1vykqh1-fill" stroke="none" fill="url(#gradient-4dd3ff-378786070)"><g><path d="M 132.608 119.293C 120.996 123.949 110.773 131.333 102.7324 140.654L 10 73.3525C 32.1782 44.6923 62.2858 22.4785 97.034 10L 132.608 119.293Z"></path></g></g></g><g id="g-root-sy_1_cu_1hhli1pvyks1y-fill" data-item-order="-71433" transform="translate(206, 223.935546875)"><defs><linearGradient id="gradient-fdac61-172712277" x2="0" y2="1"><stop offset="0" stop-color="#ffc188"></stop><stop offset="1" stop-color="#fa963a"></stop></linearGradient><linearGradient id="gradient-ffed4b-499785973" x2="0" y2="1"><stop offset="0" stop-color="#fff282"></stop><stop offset="1" stop-color="#ffe714"></stop></linearGradient><linearGradient id="gradient-bceb57-497517668" x2="0" y2="1"><stop offset="0" stop-color="#cff976"></stop><stop offset="1" stop-color="#a8dd38"></stop></linearGradient><linearGradient id="gradient-4dd3ff-378786070" x2="0" y2="1"><stop offset="0" stop-color="#7fdfff"></stop><stop offset="1" stop-color="#1ac6ff"></stop></linearGradient><linearGradient id="gradient-76aaff-163240667" x2="0" y2="1"><stop offset="0" stop-color="#9cc2ff"></stop><stop offset="1" stop-color="#4f92ff"></stop></linearGradient></defs><g id="sy_1_cu_1hhli1pvyks1y-fill" stroke="none" fill="url(#gradient-76aaff-163240667)"><g><path d="M 135.837 77.2402C 129.34 87.5284 125.197 99.4516 124.165 112.253L 10 112.195C 11.1361 74.3591 23.2184 39.2747 43.1883 10L 135.837 77.2402Z"></path></g></g></g><g id="g-root-tx_automati_4hxdi5w92net-fill" data-item-order="0" transform="translate(314.076171875, 14)"><g id="tx_automati_4hxdi5w92net-fill" stroke="none" fill="#484848"><g><text style="font: bold 20px Roboto, sans-serif; white-space: pre;" font-weight="bold" font-size="20px" font-family="Roboto, sans-serif"><tspan x="14.89" y="34" dominant-baseline="ideographic">Automation Tools</tspan></text></g></g></g><g id="g-root-tx_techstac_zlwujhw92lmu-fill" data-item-order="0" transform="translate(116, 62)"><g id="tx_techstac_zlwujhw92lmu-fill" stroke="none" fill="#484848"><g><text style="font: bold 20px Roboto, sans-serif; white-space: pre;" font-weight="bold" font-size="20px" font-family="Roboto, sans-serif"><tspan x="14.11" y="34" dominant-baseline="ideographic">Tech Stack</tspan></text></g></g></g><g id="g-root-tx_implemen_zp17z1w918nc-fill" data-item-order="0" transform="translate(314, 50)"><g id="tx_implemen_zp17z1w918nc-fill" stroke="none" fill="#484848"><g><text style="font: 15px Roboto, sans-serif; white-space: pre;" font-size="15px" font-family="Roboto, sans-serif"><tspan x="15.03" y="30.6" dominant-baseline="ideographic">Implementing tools like </tspan><tspan x="15.59" y="48.6" dominant-baseline="ideographic">Calendly and Zapier for </tspan><tspan x="13.92" y="66.6" dominant-baseline="ideographic">streamlined operations.</tspan></text></g></g></g><g id="g-root-tx_trafficl_m97dzxw92l1o-fill" data-item-order="0" transform="translate(548, 62)"><g id="tx_trafficl_m97dzxw92l1o-fill" stroke="none" fill="#484848"><g><text style="font: bold 20px Roboto, sans-serif; white-space: pre;" font-weight="bold" font-size="20px" font-family="Roboto, sans-serif"><tspan x="15.18" y="34" dominant-baseline="ideographic">Traffic Leverage</tspan></text></g></g></g><g id="g-root-tx_utilizin_1uu9n6lw9191d-fill" data-item-order="0" transform="translate(86, 98)"><g id="tx_utilizin_1uu9n6lw9191d-fill" stroke="none" fill="#484848"><g><text style="font: 15px Roboto, sans-serif; white-space: pre;" font-size="15px" font-family="Roboto, sans-serif"><tspan x="13.35" y="30.6" dominant-baseline="ideographic">Utilizing WordPress and </tspan><tspan x="16.93" y="48.6" dominant-baseline="ideographic">other tools for efficient </tspan><tspan x="35.7" y="66.6" dominant-baseline="ideographic">website creation.</tspan></text></g></g></g><g id="g-root-tx_repurpos_18issylw918uf-fill" data-item-order="0" transform="translate(542, 98)"><g id="tx_repurpos_18issylw918uf-fill" stroke="none" fill="#484848"><g><text style="font: 15px Roboto, sans-serif; white-space: pre;" font-size="15px" font-family="Roboto, sans-serif"><tspan x="17.53" y="30.6" dominant-baseline="ideographic">Repurposing feedback </tspan><tspan x="28.03" y="48.6" dominant-baseline="ideographic">into SEO content to </tspan><tspan x="52.88" y="66.6" dominant-baseline="ideographic">drive traffic.</tspan></text></g></g></g><g id="g-root-ic_cloc_vcdeotvyxf5z-fill" data-item-order="0" transform="translate(374, 170)"></g><g id="g-root-ic_open_1ly1h99vyqex6-fill" data-item-order="0" transform="translate(290, 194)"></g><g id="g-root-ic_sign_925in1vz07wr-fill" data-item-order="0" transform="translate(458, 194)"></g><g id="g-root-tx_nichesel_1up9uhpw92n0n-fill" data-item-order="0" transform="translate(20, 218)"><g id="tx_nichesel_1up9uhpw92n0n-fill" stroke="none" fill="#484848"><g><text style="font: bold 20px Roboto, sans-serif; white-space: pre;" font-weight="bold" font-size="20px" font-family="Roboto, sans-serif"><tspan x="17.51" y="34" dominant-baseline="ideographic">Niche Selection</tspan></text></g></g></g><g id="g-root-tx_exitstra_1cvhxnhw92l1n-fill" data-item-order="0" transform="translate(638, 218)"><g id="tx_exitstra_1cvhxnhw92l1n-fill" stroke="none" fill="#484848"><g><text style="font: bold 20px Roboto, sans-serif; white-space: pre;" font-weight="bold" font-size="20px" font-family="Roboto, sans-serif"><tspan x="12.84" y="34" dominant-baseline="ideographic">Exit Strategy</tspan></text></g></g></g><g id="g-root-tx_choosing_hrigm5w92mtm-fill" data-item-order="0" transform="translate(14, 254)"><g id="tx_choosing_hrigm5w92mtm-fill" stroke="none" fill="#484848"><g><text style="font: 15px Roboto, sans-serif; white-space: pre;" font-size="15px" font-family="Roboto, sans-serif"><tspan x="28.41" y="30.6" dominant-baseline="ideographic">Choosing high-CPC </tspan><tspan x="13.24" y="48.6" dominant-baseline="ideographic">industries for maximum </tspan><tspan x="33.46" y="66.6" dominant-baseline="ideographic">revenue potential.</tspan></text></g></g></g><g id="g-root-tx_planning_1qa2tgdw916ha-fill" data-item-order="0" transform="translate(614, 253.607421875)"><g id="tx_planning_1qa2tgdw916ha-fill" stroke="none" fill="#484848"><g><text style="font: 15px Roboto, sans-serif; white-space: pre;" font-size="15px" font-family="Roboto, sans-serif"><tspan x="28.74" y="30.6" dominant-baseline="ideographic">Planning to sell the </tspan><tspan x="14.56" y="48.6" dominant-baseline="ideographic">automated directory on </tspan><tspan x="22.34" y="66.6" dominant-baseline="ideographic">platforms like Flippa.</tspan></text></g></g></g><g id="g-root-ic_sear_40m1pvynk7a-fill" data-item-order="0" transform="translate(242, 266)"></g><g id="g-root-ic_shov_18fpqxpvym5fp-fill" data-item-order="0" transform="translate(362, 278)"></g><g id="g-root-ic_2_zmkn19vz30g9-fill" data-item-order="0" transform="translate(506, 266)"></g><g id="g-root-sy_5_cu_144w1i5vykrgq-stroke" data-item-order="-71449" transform="translate(463.24951171875, 223.755859375)"><g id="sy_5_cu_144w1i5vykrgq-stroke" fill="none" stroke-linecap="round" stroke-linejoin="round" stroke-miterlimit="4" stroke="#484848" stroke-width="2"><g><path d="M 21.3646 112.3316C 20.3601 99.7068 16.3302 87.9343 10 77.7392L 103.3361 10C 123.3401 39.3254 135.4294 74.4805 136.5293 112.3908L 21.3646 112.3316Z"></path></g></g></g><g id="g-root-sy_4_cu_me8i3hvykqo3-stroke" data-item-order="-71445" transform="translate(427, 151)"><g id="sy_4_cu_me8i3hvykqo3-stroke" fill="none" stroke-linecap="round" stroke-linejoin="round" stroke-miterlimit="4" stroke="#484848" stroke-width="2"><g><path d="M 39.4485 141.1687C 31.5362 131.8557 21.4613 124.4372 10 119.6894L 45.5779 10C 80.4046 22.4662 110.58 44.7084 132.7976 73.42L 39.4485 141.1687Z"></path></g></g></g><g id="g-root-sy_3_cu_92rzq5vyks90-stroke" data-item-order="-71441" transform="translate(343.9873046875, 140)"><g id="sy_3_cu_92rzq5vyks90-stroke" fill="none" stroke-linecap="round" stroke-linejoin="round" stroke-miterlimit="4" stroke="#484848" stroke-width="2"><g><path d="M 82.0987 127.2646C 76.1178 125.785 69.8631 125 63.425 125C 57.2918 125 51.3251 125.7124 45.6029 127.0591L 10 17.6761C 27.1074 12.6796 45.2033 10 63.925 10C 82.578 10 100.6097 12.6599 117.6616 17.6212L 82.0987 127.2646Z"></path></g></g></g><g id="g-root-sy_2_cu_1ut20f1vykqh1-stroke" data-item-order="-71437" transform="translate(245.9755859375, 151.24609375)"><g id="sy_2_cu_1ut20f1vykqh1-stroke" fill="none" stroke-linecap="round" stroke-linejoin="round" stroke-miterlimit="4" stroke="#484848" stroke-width="2"><g><path d="M 132.6076 119.2926C 120.9962 123.9486 110.7733 131.3334 102.7324 140.6537L 10 73.3525C 32.1782 44.6923 62.2858 22.4785 97.034 10L 132.6076 119.2926Z"></path></g></g></g><g id="g-root-sy_1_cu_1hhli1pvyks1y-stroke" data-item-order="-71433" transform="translate(206, 223.935546875)"><g id="sy_1_cu_1hhli1pvyks1y-stroke" fill="none" stroke-linecap="round" stroke-linejoin="round" stroke-miterlimit="4" stroke="#484848" stroke-width="2"><g><path d="M 135.8367 77.2402C 129.3397 87.5284 125.197 99.4516 124.1653 112.2533L 10 112.1946C 11.1361 74.3591 23.2184 39.2747 43.1883 10L 135.8367 77.2402Z"></path></g></g></g><g id="g-root-tx_automati_4hxdi5w92net-stroke" data-item-order="0" transform="translate(314.076171875, 14)"></g><g id="g-root-tx_techstac_zlwujhw92lmu-stroke" data-item-order="0" transform="translate(116, 62)"></g><g id="g-root-tx_implemen_zp17z1w918nc-stroke" data-item-order="0" transform="translate(314, 50)"></g><g id="g-root-tx_trafficl_m97dzxw92l1o-stroke" data-item-order="0" transform="translate(548, 62)"></g><g id="g-root-tx_utilizin_1uu9n6lw9191d-stroke" data-item-order="0" transform="translate(86, 98)"></g><g id="g-root-tx_repurpos_18issylw918uf-stroke" data-item-order="0" transform="translate(542, 98)"></g><g id="g-root-ic_cloc_vcdeotvyxf5z-stroke" data-item-order="0" transform="translate(374, 170)"><g id="ic_cloc_vcdeotvyxf5z-stroke" fill="none" stroke-linecap="round" stroke-linejoin="round" stroke-miterlimit="4" stroke="#484848" stroke-width="2"><g><path d="M 41.835999 43.352001C 41.835705 45.026737 43.193264 46.384533 44.868 46.384533C 46.542736 46.384533 47.900295 45.026737 47.900002 43.352001C 47.900295 41.677265 46.542736 40.319466 44.868 40.319466C 43.193264 40.319466 41.835705 41.677265 41.835999 43.352001M 47.444 31.618L 48.338001 34.556C 48.64032 35.570786 49.681187 36.17408 50.712002 35.931999L 53.688 35.242001C 54.846245 34.981133 56.039349 35.50515 56.630913 36.534534C 57.222477 37.563919 57.074535 38.858601 56.265999 39.728001L 54.181999 41.973999C 53.462158 42.750885 53.462158 43.951115 54.181999 44.728001L 56.265999 46.976002C 57.075802 47.844814 57.224419 49.140121 56.632442 50.169769C 56.040462 51.199413 54.846275 51.722698 53.688004 51.460003L 50.712002 50.77C 49.680599 50.528091 48.639481 51.132412 48.338001 52.147999L 47.444 55.084C 47.102047 56.220905 46.055218 56.999199 44.868004 56.999199C 43.680786 56.999199 42.633957 56.220905 42.292004 55.084003L 41.400002 52.147999C 41.098518 51.132412 40.057404 50.528091 39.026001 50.77L 36.049999 51.459999C 34.892086 51.721451 33.698967 51.197712 33.107643 50.168407C 32.516323 49.139107 32.664879 47.844593 33.473999 46.976002L 35.556 44.728001C 36.275841 43.951115 36.275841 42.750885 35.556 41.973999L 33.473999 39.728001C 32.663025 38.859653 32.513355 37.563873 33.105019 36.533512C 33.696686 35.503151 34.891258 34.979279 36.050003 35.242001L 39.026001 35.931999C 40.056816 36.17408 41.097679 35.570786 41.400002 34.556L 42.293999 31.618C 42.637051 30.482767 43.683067 29.706123 44.869003 29.706123C 46.054935 29.706123 47.100952 30.482767 47.444004 31.618002ZM 27.073999 51.014C 17.286213 48.962051 10.468275 40.063789 11.033554 30.079214C 11.598832 20.094637 19.377537 12.022768 29.334379 11.088661C 39.291222 10.154555 48.435516 16.638784 50.848 26.344M 30.426001 20.098L 30.426001 31.040001L 23.132 36.510002"></path></g></g></g><g id="g-root-ic_open_1ly1h99vyqex6-stroke" data-item-order="0" transform="translate(290, 194)"><g id="ic_open_1ly1h99vyqex6-stroke" fill="none" stroke-linecap="round" stroke-linejoin="round" stroke-miterlimit="4" stroke="#484848" stroke-width="2"><g><path d="M 30.482 50.709999C 29.820431 50.709499 29.186485 50.444687 28.721132 49.974449C 28.255779 49.504215 27.997599 48.867538 28.004 48.206001L 28.004 48.206001C 28.018253 46.8465 29.124424 45.751926 30.484001 45.751999L 37.624001 45.751999C 38.992104 45.754208 40.100002 46.863895 40.099998 48.232002L 40.099998 48.231998C 40.0989 49.600105 38.990105 50.708897 37.622002 50.709999L 30.482 50.709999ZM 56.5 40.868L 56.5 54.023998C 56.5 55.104 55.625999 55.978001 54.546001 55.978001L 13.534 55.978001C 12.454836 55.978001 11.58 55.103165 11.58 54.023998L 11.58 40.868M 56.5 40.868L 11.58 40.868M 11.5 20.812L 11.5 13.976C 11.5 12.896 12.374001 12.022 13.454 12.022L 54.466 12.022C 55.546001 12.022 56.419998 12.896 56.419998 13.976L 56.419998 20.812M 27.504 30.493999C 26.674015 31.685698 25.500551 32.596146 24.139999 33.104L 24.116001 40.868L 19.060001 40.868L 19.086 33.087997C 16.308346 32.029343 14.476141 29.361723 14.485033 26.389175C 14.493927 23.416626 16.34206 20.760019 19.125999 19.718L 19.112 25.138L 21.632 27.674L 24.164 25.153999L 24.18 19.734001C 26.235029 20.517237 27.814951 22.203094 28.463358 24.304562C 29.111767 26.406031 28.756432 28.689011 27.5 30.493999ZM 31.875999 40.868L 31.902 33.528L 38.138 33.531998L 38.138 40.868L 31.878 40.868ZM 32.348 19.720001L 37.697998 19.720001L 37.697998 22.360001C 37.697998 23.83736 36.500359 25.035 35.022999 25.035C 33.545639 25.035 32.348 23.83736 32.348 22.360001L 32.348 19.720001ZM 35.007999 25.038L 35.007999 33.528M 50.122002 30.594C 52.726933 29.322203 54.097816 26.410728 53.41864 23.592594C 52.739464 20.77446 50.192783 18.807125 47.294476 18.861622C 44.396168 18.916119 41.92524 20.977798 41.352486 23.819471C 40.779732 26.661146 42.25909 29.519028 44.909996 30.691999L 44.896 40.868L 50.122002 40.868L 50.122002 30.594ZM 45.085999 25.038C 45.085838 26.322729 46.12727 27.364292 47.411999 27.364292C 48.696728 27.364292 49.738159 26.322729 49.737999 25.038C 49.738159 23.753271 48.696728 22.711708 47.411999 22.711708C 46.12727 22.711708 45.085838 23.753271 45.085999 25.038"></path></g></g></g><g id="g-root-ic_sign_925in1vz07wr-stroke" data-item-order="0" transform="translate(458, 194)"><g id="ic_sign_925in1vz07wr-stroke" fill="none" stroke-linecap="round" stroke-linejoin="round" stroke-miterlimit="4" stroke="#484848" stroke-width="2"><g><path d="M 24 33L 20 57M 28 11L 26 21M 44 33L 48 57M 40 11L 42 21M 34 49L 34 57M 34 35L 34 41M 34 11L 34 13M 18.860001 29.836C 18.940166 29.3538 19.357182 29.000225 19.846001 29L 48.152 29C 48.64082 29.000225 49.057835 29.3538 49.138 29.836L 50.862 40.164001C 50.942165 40.646202 51.35918 40.999775 51.848 41L 56 41C 56.552284 41 57 40.552284 57 40L 57 22C 57 21.447716 56.552284 21 56 21L 12 21C 11.447716 21 11 21.447716 11 22L 11 40C 11 40.552284 11.447716 41 12 41L 16.153999 41C 16.642818 40.999775 17.059834 40.646202 17.139999 40.164001Z"></path></g></g></g><g id="g-root-tx_nichesel_1up9uhpw92n0n-stroke" data-item-order="0" transform="translate(20, 218)"></g><g id="g-root-tx_exitstra_1cvhxnhw92l1n-stroke" data-item-order="0" transform="translate(638, 218)"></g><g id="g-root-tx_choosing_hrigm5w92mtm-stroke" data-item-order="0" transform="translate(14, 254)"></g><g id="g-root-tx_planning_1qa2tgdw916ha-stroke" data-item-order="0" transform="translate(614, 253.607421875)"></g><g id="g-root-ic_sear_40m1pvynk7a-stroke" data-item-order="0" transform="translate(242, 266)"><g id="ic_sear_40m1pvynk7a-stroke" fill="none" stroke-linecap="round" stroke-linejoin="round" stroke-miterlimit="4" stroke="#484848" stroke-width="2"><g><path d="M 25 20.779999L 25 52.779999M 39 31L 39 11M 31 48.720001L 25.58 52.580002C 25.237045 52.840019 24.762951 52.840019 24.419998 52.579998L 11.42 43.299999C 11.1575 43.109066 11.001551 42.804592 11 42.48L 11 12C 10.993511 11.626602 11.204156 11.28333 11.54 11.12C 11.858075 10.920883 12.261925 10.920883 12.58 11.12L 25 20.779999L 38.419998 11.18C 38.769028 10.938729 39.230972 10.938729 39.580002 11.18L 52.580002 20.48C 52.841915 20.662369 52.998619 20.960854 53 21.279999L 53 33M 53 44C 53 48.970562 48.970562 53 44 53C 39.029438 53 35 48.970562 35 44C 35 39.029438 39.029438 35 44 35C 48.970562 35 53 39.029438 53 44ZM 50.360001 50.360001L 57 57"></path></g></g></g><g id="g-root-ic_shov_18fpqxpvym5fp-stroke" data-item-order="0" transform="translate(362, 278)"><g id="ic_shov_18fpqxpvym5fp-stroke" fill="none" stroke-linecap="round" stroke-linejoin="round" stroke-miterlimit="4" stroke="#484848" stroke-width="2"><g><path d="M 29.5 80.451996L 80.5 80.451996C 80.5 80.451996 79.249001 50.452 62.5 50.452C 46.633003 50.452 29.5 80.451996 29.5 80.451996ZM 35.043999 61.836998C 32.557232 60.248047 29.660885 59.419182 26.710001 59.451996C 16.774 59.451996 11.5 80.451996 11.5 80.451996L 29.5 80.451996M 20.353001 18.969999L 41.566002 40.186001M 59.199997 50.862999L 57.618999 44.602001C 57.341324 43.67141 56.856148 42.815941 56.200001 42.100002L 49 34.879002C 48.414253 34.293427 47.464748 34.293427 46.879002 34.879002L 36.264999 45.487C 35.679428 46.07275 35.679428 47.022247 36.264999 47.608002L 43.404999 54.748001C 44.126045 55.418667 44.962528 55.953285 45.874001 56.325996L 48.124001 57.147999M 12.931 26.395L 27.778 11.548"></path></g></g></g><g id="g-root-ic_2_zmkn19vz30g9-stroke" data-item-order="0" transform="translate(506, 266)"><g id="ic_2_zmkn19vz30g9-stroke" fill="none" stroke-linecap="round" stroke-linejoin="round" stroke-miterlimit="4" stroke="#484848" stroke-width="2"><g><path d="M 57 34L 33 34M 49 42L 57 34L 49 26M 29 15L 44 15C 44.552284 15 45 15.447716 45 16L 45 21M 45 47L 45 52C 45 52.552284 44.552284 53 44 53L 29 53M 11 52.445999C 11.000184 52.914909 11.326161 53.320717 11.784 53.422001L 27.784 56.976002C 28.079929 57.041466 28.38958 56.969189 28.625946 56.779472C 28.86231 56.58976 28.99988 56.303085 29 56L 29 12C 28.99988 11.696917 28.86231 11.410241 28.625946 11.220527C 28.38958 11.030812 28.079929 10.958534 27.784 11.024L 11.784 14.58C 11.326161 14.681284 11.000184 15.087091 11 15.556ZM 19 34C 19 35.656853 20.343147 37 22 37C 23.656855 37 25 35.656853 25 34C 25 32.343147 23.656855 31 22 31C 20.343147 31 19 32.343147 19 34Z"></path></g></g></g></g></g><path id="w1qapk0txwrqx7" d="M65.283 12.757a.35.35 0 0 0 .584.157l5.203-5.141-6.183 3.523.396 1.461zm-2.216-11.7a.35.35 0 0 0-.522.305v3.111l3.276-1.868-2.754-1.548zm3.728 2.105l-4.25 2.421v2.445l6.391-3.644-2.141-1.222zm4.708 3.303a.35.35 0 0 0 0-.609l-1.592-.9-7.365 4.199v1.782a.35.35 0 0 0 .523.305l8.435-4.777z M44.542 2.513c0-.433.355-.783.792-.783s.792.35.792.783-.355.783-.792.783-.792-.35-.792-.783zm59.171 0c0-.433.355-.783.792-.783s.792.35.792.783-.355.783-.792.783-.792-.35-.792-.783zm-85.951 7.636h-1.27v-.487c-.276.201-.864.609-1.881.609-1.202 0-2.274-.794-2.137-2.078.118-1.106 1.153-1.584 1.848-1.727l2.17-.345c0-.539-.29-.956-1.064-1.006s-1.21.305-1.571 1.017l-1.124-.605c1.218-2.631 5.029-1.764 5.029.414v4.207zm-1.27-2.86c.006.396-.062 1.112-.819 1.59-.587.37-1.841.299-1.903-.395-.049-.555.461-.791.906-.898l1.816-.297zm72.662 2.86h-1.27v-.487c-.276.201-.864.609-1.881.609-1.202 0-2.274-.794-2.137-2.078.118-1.106 1.153-1.584 1.848-1.727l2.17-.345c0-.539-.29-.956-1.064-1.006s-1.21.305-1.571 1.017l-1.124-.605c1.218-2.631 5.029-1.764 5.029.414v4.207zm-1.27-2.86c.006.396-.062 1.112-.82 1.59-.587.37-1.841.299-1.903-.395-.049-.555.461-.791.906-.898l1.816-.297zM99.096 10.149H97.85v-8.45h1.246v4.895l2.68-2.559h1.738l-2.633 2.535 2.715 3.578h-1.556l-2.077-2.707-.867.844v1.863zm6.053-6.114h-1.255v6.113h1.255V4.035zm-59.2 0h-1.255v6.113h1.255V4.035zm5.584 6.113V1.697h1.255v2.695c.361-.346 1-.485 1.47-.485 1.452 0 2.477 1.082 2.457 2.448v3.792h-1.27v-3.68c0-.408-.214-1.339-1.315-1.339-.968 0-1.342.756-1.342 1.339v3.681h-1.255zm-4.76-4.894V4.039h.621a.45.45 0 0 0 .45-.45v-.855h1.251v1.305h1.309v1.215h-1.309v3.109c0 .293.105.664.648.664.365 0 .531-.035.736-.07v1.137s-.361.113-.857.113c-1.398 0-1.777-1.051-1.777-1.788V5.254h-1.071zM36.528 4.039h-1.394l2.191 6.106h1.125l1.234-3.918 1.238 3.918h1.129l2.188-6.106h-1.383l-1.359 3.93-1.256-3.93h-1.124l-1.242 3.957-1.348-3.957zM26.212 7.141c-.02 1.566 1.187 3.129 3.223 3.129 1.566 0 2.383-.918 2.734-1.719L31.172 8c-.315.399-.801 1.094-1.738 1.094-1.145 0-1.825-.781-1.891-1.52h4.625c.074-.284.148-.995-.03-1.559-.336-1.064-1.221-2.102-2.839-2.102s-3.088 1.152-3.088 3.227zm1.363-.75h3.348c-.055-.43-.566-1.301-1.623-1.301a1.79 1.79 0 0 0-1.725 1.301zm-8.758.75c.038 1.758 1.277 3.133 3.145 3.133 1.074 0 1.723-.477 1.961-.672v.547h1.242V1.703h-1.258v2.888c-.414-.36-1.062-.68-1.93-.68-1.91 0-3.198 1.473-3.16 3.23zm1.309-.08c0 1.119.723 1.978 1.836 1.978a1.88 1.88 0 0 0 1.94-1.904c0-1.371-1.011-1.99-1.972-1.99s-1.805.798-1.805 1.916zm76.683-.028C96.771 5.275 95.532 3.9 93.664 3.9c-1.074 0-1.723.477-1.961.672v-.547h-1.242v8.22h1.258V9.583c.414.36 1.063.68 1.93.68 1.91 0 3.198-1.473 3.16-3.23zm-1.309.08c0-1.119-.723-1.978-1.836-1.978a1.88 1.88 0 0 0-1.94 1.904c0 1.371 1.011 1.99 1.972 1.99S95.5 8.231 95.5 7.113zM106.441 10.173V4.036h1.254v.382c.361-.346 1-.485 1.47-.485 1.452 0 2.477 1.082 2.457 2.448v3.792h-1.27V6.492c0-.408-.214-1.339-1.315-1.339-.969 0-1.342.756-1.342 1.339v3.681h-1.254zm-30.383-.021V1.824h1.084l4.215 5.777V1.824h1.32v8.328h-1.094l-4.207-5.796v5.796h-1.319zM5.24 10.149H4V2.377h1.014l2.664 3.597 2.654-3.592h1.03v7.766h-1.256V4.762L7.678 8.068 5.24 4.742v5.407z" transform="translate(680, 374)" fill="#80808088" stroke="none"></path></svg>