<?xml version="1.0" encoding="utf-8" standalone="yes"?>
<!DOCTYPE svg PUBLIC "-//W3C//DTD SVG 1.1//EN" "http://www.w3.org/Graphics/SVG/1.1/DTD/svg11.dtd">
<svg width="828" height="492" viewBox="0 0 828 492" style="fill:none;stroke:none;fill-rule:evenodd;clip-rule:evenodd;stroke-linecap:round;stroke-linejoin:round;stroke-miterlimit:1.5;" version="1.1" xmlns="http://www.w3.org/2000/svg" xmlns:xlink="http://www.w3.org/1999/xlink"><style class="text-font-style fontImports" data-font-family="Roboto">@import url('https://fonts.googleapis.com/css2?family=Roboto:wght@400;700&amp;display=block');</style><g id="items" style="isolation: isolate"><g id="blend" style="mix-blend-mode: normal"><g id="g-root-ro_4mxch8xcwt1p-fill" data-item-order="-27000" transform="translate(326, 203)"></g><g id="g-root-ro_1upwl0sxck4r3-fill" data-item-order="-14256" transform="translate(14, 308)"></g><g id="g-root-ro_1hdtiekxd10jm-fill" data-item-order="-12312" transform="translate(554, 140)"></g><g id="g-root-ro_qriyr0xd2dxh-fill" data-item-order="-11664" transform="translate(554, 290)"></g><g id="g-root-ro_1hf2jqkxcipsc-fill" data-item-order="-9072" transform="translate(110, 122)"></g><g id="g-root-cu_1lu9krwxck6bn-fill" data-item-order="0" transform="translate(506, 167)"></g><g id="g-root-tx_googlead_1cy00a4xd3s3l-fill" data-item-order="0" transform="translate(74, 188)"><g id="tx_googlead_1cy00a4xd3s3l-fill" stroke="none" fill="#484848"><g><text style="font: 20px Roboto, sans-serif; white-space: pre;" font-size="20px" font-family="Roboto, sans-serif"><tspan x="14.56" y="34" dominant-baseline="ideographic">Google AdSense</tspan></text></g></g></g><g id="g-root-cu_143m1d8xck5j8-fill" data-item-order="0" transform="translate(236, 176)"></g><g id="g-root-cu_hx4zu4xck4r3-fill" data-item-order="0" transform="translate(236, 176)"></g><g id="g-root-cu_1hgbhwsxck64t-fill" data-item-order="0" transform="translate(236, 362)"></g><g id="g-root-cu_91hzl8xck6bn-fill" data-item-order="0" transform="translate(578, 194)"></g><g id="g-root-cu_6hgfgxck3ym-fill" data-item-order="0" transform="translate(578, 194)"></g><g id="g-root-tx_ezoic_qqwhnwxd3uh6-fill" data-item-order="0" transform="translate(170, 224)"><g id="tx_ezoic_qqwhnwxd3uh6-fill" stroke="none" fill="#484848"><g><text style="font: 20px Roboto, sans-serif; white-space: pre;" font-size="20px" font-family="Roboto, sans-serif"><tspan x="16.06" y="34" dominant-baseline="ideographic">Ezoic</tspan></text></g></g></g><g id="g-root-cu_1lw5018xck64g-fill" data-item-order="0" transform="translate(236, 362)"></g><g id="g-root-tx_premiump_908y98xd3tok-fill" data-item-order="0" transform="translate(602, 206)"><g id="tx_premiump_908y98xd3tok-fill" stroke="none" fill="#484848"><g><text style="font: 20px Roboto, sans-serif; white-space: pre;" font-size="20px" font-family="Roboto, sans-serif"><tspan x="15.54" y="34" dominant-baseline="ideographic">Premium Placement</tspan></text></g></g></g><g id="g-root-tx_mediavin_dg2gdoxd3swb-fill" data-item-order="0" transform="translate(134, 260)"><g id="tx_mediavin_dg2gdoxd3swb-fill" stroke="none" fill="#484848"><g><text style="font: 20px Roboto, sans-serif; white-space: pre;" font-size="20px" font-family="Roboto, sans-serif"><tspan x="12.43" y="34" dominant-baseline="ideographic">Mediavine</tspan></text></g></g></g><g id="g-root-tx_enhanced_1uqiyy4xd3rwl-fill" data-item-order="0" transform="translate(602, 242)"><g id="tx_enhanced_1uqiyy4xd3rwl-fill" stroke="none" fill="#484848"><g><text style="font: 20px Roboto, sans-serif; white-space: pre;" font-size="20px" font-family="Roboto, sans-serif"><tspan x="14.95" y="34" dominant-baseline="ideographic">Enhanced Features</tspan></text></g></g></g><g id="g-root-tx_leadgene_1448fakxd3rwo-fill" data-item-order="0" transform="translate(86, 374)"><g id="tx_leadgene_1448fakxd3rwo-fill" stroke="none" fill="#484848"><g><text style="font: 20px Roboto, sans-serif; white-space: pre;" font-size="20px" font-family="Roboto, sans-serif"><tspan x="13.91" y="34" dominant-baseline="ideographic">Lead Generator</tspan></text></g></g></g><g id="g-root-cu_1lu9krwxck6bk-fill" data-item-order="0" transform="translate(278, 149)"></g><g id="g-root-tx_selltobu_18jfgbwxd3ua7-fill" data-item-order="0" transform="translate(602, 392)"><g id="tx_selltobu_18jfgbwxd3ua7-fill" stroke="none" fill="#484848"><g><text style="font: 20px Roboto, sans-serif; white-space: pre;" font-size="20px" font-family="Roboto, sans-serif"><tspan x="13.11" y="34" dominant-baseline="ideographic">Sell to Businesses</tspan></text></g></g></g><g id="g-root-cu_18jfjhoxck4qx-fill" data-item-order="0" transform="translate(278, 303)"></g><g id="g-root-cu_1cz91m4xck3ym-fill" data-item-order="0" transform="translate(506, 303)"></g><g id="g-root-tx_capturel_1luvyp8xd3spa-fill" data-item-order="0" transform="translate(602, 356)"><g id="tx_capturel_1luvyp8xd3spa-fill" stroke="none" fill="#484848"><g><text style="font: 20px Roboto, sans-serif; white-space: pre;" font-size="20px" font-family="Roboto, sans-serif"><tspan x="17.64" y="34" dominant-baseline="ideographic">Capture Leads</tspan></text></g></g></g><g id="g-root-tx_monetiza_18layr0xck4jm-fill" data-item-order="0" transform="translate(164, 38)"><g id="tx_monetiza_18layr0xck4jm-fill" stroke="none" fill="#484848"><g><text style="font: 25px Roboto, sans-serif; white-space: pre;" font-size="25px" font-family="Roboto, sans-serif"><tspan x="15.88" y="42.6" dominant-baseline="ideographic">Monetization Paths for Directory Websites</tspan></text></g></g></g><g id="g-root-cu_1urs0a4xck4js-fill" data-item-order="0" transform="translate(578, 344)"></g><g id="g-root-cu_1qbyi5oxck5c3-fill" data-item-order="0" transform="translate(578, 344)"></g><g id="g-root-tx_ownbusin_qsrwx8xd3thl-fill" data-item-order="0" transform="translate(98, 410)"><g id="tx_ownbusin_qsrwx8xd3thl-fill" stroke="none" fill="#484848"><g><text style="font: 20px Roboto, sans-serif; white-space: pre;" font-size="20px" font-family="Roboto, sans-serif"><tspan x="13.12" y="34" dominant-baseline="ideographic">Own Business</tspan></text></g></g></g><g id="g-root-cu_dhbhpoxck5jd-fill" data-item-order="0" transform="translate(236, 176)"></g><g id="g-root-ic_prom_4kfjakxck45i-fill" data-item-order="1000000000" transform="translate(236, 320)"></g><g id="g-root-tx_leadgene_1hdtiekxd2dxf-fill" data-item-order="1000000000" transform="translate(602, 305)"><g id="tx_leadgene_1hdtiekxd2dxf-fill" stroke="none" fill="#e0cb15"><g><text style="font: 20px Roboto, sans-serif; white-space: pre;" font-size="20px" font-family="Roboto, sans-serif"><tspan x="15.25" y="34" dominant-baseline="ideographic">Lead Generation</tspan></text></g></g></g><g id="g-root-ic_2_142d018xd2fic-fill" data-item-order="1000000000" transform="translate(566, 302)"></g><g id="g-root-tx_monetiza_144uwdoxcws8z-fill" data-item-order="1000000000" transform="translate(350, 281)"><g id="tx_monetiza_144uwdoxcws8z-fill" stroke="none" fill="#969696"><g><text style="font: 20px Roboto, sans-serif; white-space: pre;" font-size="20px" font-family="Roboto, sans-serif"><tspan x="16.35" y="34" dominant-baseline="ideographic">Monetization </tspan><tspan x="49.01" y="58" dominant-baseline="ideographic">Paths</tspan></text></g></g></g><g id="g-root-ic_netw_dikcq4xcws90-fill" data-item-order="1000000000" transform="translate(392, 227)"></g><g id="g-root-tx_featured_3czu4xd11jc-fill" data-item-order="1000000000" transform="translate(602, 155)"><g id="tx_featured_3czu4xd11jc-fill" stroke="none" fill="#ba5de5"><g><text style="font: 20px Roboto, sans-serif; white-space: pre;" font-size="20px" font-family="Roboto, sans-serif"><tspan x="17.34" y="34" dominant-baseline="ideographic">Featured Listings</tspan></text></g></g></g><g id="g-root-ic_scal_1ltn0j0xd0zrd-fill" data-item-order="1000000000" transform="translate(566, 152)"></g><g id="g-root-ic_coin_1qa32wcxcis5f-fill" data-item-order="1000000000" transform="translate(236, 134)"></g><g id="g-root-tx_displaya_4kfjakxciqrm-fill" data-item-order="1000000000" transform="translate(122, 137)"><g id="tx_displaya_4kfjakxciqrm-fill" stroke="none" fill="#e55753"><g><text style="font: 20px Roboto, sans-serif; white-space: pre;" font-size="20px" font-family="Roboto, sans-serif"><tspan x="11.89" y="34" dominant-baseline="ideographic">Display Ads</tspan></text></g></g></g><g id="g-root-tx_saasserv_8zmkbwxck6j1-fill" data-item-order="1000000000" transform="translate(26, 323)"><g id="tx_saasserv_8zmkbwxck6j1-fill" stroke="none" fill="#92bd39"><g><text style="font: 20px Roboto, sans-serif; white-space: pre;" font-size="20px" font-family="Roboto, sans-serif"><tspan x="15.23" y="34" dominant-baseline="ideographic">SaaS/Service Funnels</tspan></text></g></g></g><g id="g-root-ro_4mxch8xcwt1p-stroke" data-item-order="-27000" transform="translate(326, 203)"><g id="ro_4mxch8xcwt1p-stroke" fill="none" stroke-linecap="round" stroke-linejoin="round" stroke-miterlimit="4" stroke="#808080" stroke-width="2"><g><path d="M 34 10L 166 10C 166 10 190 10 190 34L 190 136C 190 136 190 160 166 160L 34 160C 34 160 10 160 10 136L 10 34C 10 34 10 10 34 10"></path></g></g></g><g id="g-root-ro_1upwl0sxck4r3-stroke" data-item-order="-14256" transform="translate(14, 308)"><g id="ro_1upwl0sxck4r3-stroke" fill="none" stroke-linecap="round" stroke-linejoin="round" stroke-miterlimit="4" stroke="#92bd39" stroke-width="2"><g><path d="M 22 10L 262 10C 262 10 274 10 274 22L 274 52C 274 52 274 64 262 64L 22 64C 22 64 10 64 10 52L 10 22C 10 22 10 10 22 10"></path></g></g></g><g id="g-root-ro_1hdtiekxd10jm-stroke" data-item-order="-12312" transform="translate(554, 140)"><g id="ro_1hdtiekxd10jm-stroke" fill="none" stroke-linecap="round" stroke-linejoin="round" stroke-miterlimit="4" stroke="#ba5de5" stroke-width="2"><g><path d="M 22 10L 226 10C 226 10 238 10 238 22L 238 52C 238 52 238 64 226 64L 22 64C 22 64 10 64 10 52L 10 22C 10 22 10 10 22 10"></path></g></g></g><g id="g-root-ro_qriyr0xd2dxh-stroke" data-item-order="-11664" transform="translate(554, 290)"><g id="ro_qriyr0xd2dxh-stroke" fill="none" stroke-linecap="round" stroke-linejoin="round" stroke-miterlimit="4" stroke="#e0cb15" stroke-width="2"><g><path d="M 22 10L 214 10C 214 10 226 10 226 22L 226 52C 226 52 226 64 214 64L 22 64C 22 64 10 64 10 52L 10 22C 10 22 10 10 22 10"></path></g></g></g><g id="g-root-ro_1hf2jqkxcipsc-stroke" data-item-order="-9072" transform="translate(110, 122)"><g id="ro_1hf2jqkxcipsc-stroke" fill="none" stroke-linecap="round" stroke-linejoin="round" stroke-miterlimit="4" stroke="#e55753" stroke-width="2"><g><path d="M 22 10L 166 10C 166 10 178 10 178 22L 178 52C 178 52 178 64 166 64L 22 64C 22 64 10 64 10 52L 10 22C 10 22 10 10 22 10"></path></g></g></g><g id="g-root-cu_1lu9krwxck6bn-stroke" data-item-order="0" transform="translate(506, 167)"><g id="cu_1lu9krwxck6bn-stroke" fill="none" stroke-linecap="round" stroke-linejoin="round" stroke-miterlimit="4" stroke="#484848" stroke-width="2" stroke-dasharray="5.0, 7.0"><g><path d="M 10 96L 13 96L 13.1 96C 24.642748 96.000003 33.999998 86.642755 33.999998 75.100003L 34 75L 34 30.9C 33.999999 19.357249 43.357248 10.000001 54.899999 10.000002L 55 10L 58 10"></path></g></g></g><g id="g-root-tx_googlead_1cy00a4xd3s3l-stroke" data-item-order="0" transform="translate(74, 188)"></g><g id="g-root-cu_143m1d8xck5j8-stroke" data-item-order="0" transform="translate(236, 176)"><g id="cu_143m1d8xck5j8-stroke" fill="none" stroke-linecap="round" stroke-linejoin="round" stroke-miterlimit="4" stroke="#484848" stroke-width="2" stroke-dasharray="5.0, 7.0"><g><path d="M 28 10L 28 22L 28 34L 19 34L 10 34"></path></g></g></g><g id="g-root-cu_hx4zu4xck4r3-stroke" data-item-order="0" transform="translate(236, 176)"><g id="cu_hx4zu4xck4r3-stroke" fill="none" stroke-linecap="round" stroke-linejoin="round" stroke-miterlimit="4" stroke="#484848" stroke-width="2" stroke-dasharray="5.0, 7.0"><g><path d="M 28 10L 28 40L 28 70L 19 70L 10 70"></path></g></g></g><g id="g-root-cu_1hgbhwsxck64t-stroke" data-item-order="0" transform="translate(236, 362)"><g id="cu_1hgbhwsxck64t-stroke" fill="none" stroke-linecap="round" stroke-linejoin="round" stroke-miterlimit="4" stroke="#484848" stroke-width="2" stroke-dasharray="5.0, 7.0"><g><path d="M 28 10L 28 22L 28 34L 19 34L 10 34"></path></g></g></g><g id="g-root-cu_91hzl8xck6bn-stroke" data-item-order="0" transform="translate(578, 194)"><g id="cu_91hzl8xck6bn-stroke" fill="none" stroke-linecap="round" stroke-linejoin="round" stroke-miterlimit="4" stroke="#484848" stroke-width="2" stroke-dasharray="5.0, 7.0"><g><path d="M 10 10L 10 22L 10 34L 19 34L 28 34"></path></g></g></g><g id="g-root-cu_6hgfgxck3ym-stroke" data-item-order="0" transform="translate(578, 194)"><g id="cu_6hgfgxck3ym-stroke" fill="none" stroke-linecap="round" stroke-linejoin="round" stroke-miterlimit="4" stroke="#484848" stroke-width="2" stroke-dasharray="5.0, 7.0"><g><path d="M 10 10L 10 17.5L 10 58C 10.000002 64.627417 15.372585 70 22.000002 69.999999L 22.1 70L 28 70"></path></g></g></g><g id="g-root-tx_ezoic_qqwhnwxd3uh6-stroke" data-item-order="0" transform="translate(170, 224)"></g><g id="g-root-cu_1lw5018xck64g-stroke" data-item-order="0" transform="translate(236, 362)"><g id="cu_1lw5018xck64g-stroke" fill="none" stroke-linecap="round" stroke-linejoin="round" stroke-miterlimit="4" stroke="#484848" stroke-width="2" stroke-dasharray="5.0, 7.0"><g><path d="M 28 10L 28 17.5L 28 58C 27.999999 64.627415 22.627416 69.999998 16 69.999998L 15.9 70L 10 70"></path></g></g></g><g id="g-root-tx_premiump_908y98xd3tok-stroke" data-item-order="0" transform="translate(602, 206)"></g><g id="g-root-tx_mediavin_dg2gdoxd3swb-stroke" data-item-order="0" transform="translate(134, 260)"></g><g id="g-root-tx_enhanced_1uqiyy4xd3rwl-stroke" data-item-order="0" transform="translate(602, 242)"></g><g id="g-root-tx_leadgene_1448fakxd3rwo-stroke" data-item-order="0" transform="translate(86, 374)"></g><g id="g-root-cu_1lu9krwxck6bk-stroke" data-item-order="0" transform="translate(278, 149)"><g id="cu_1lu9krwxck6bk-stroke" fill="none" stroke-linecap="round" stroke-linejoin="round" stroke-miterlimit="4" stroke="#484848" stroke-width="2" stroke-dasharray="5.0, 7.0"><g><path d="M 58 114L 55 114L 54.9 114C 43.357245 113.999995 33.999997 104.642746 33.999997 93.099996L 34 93L 34 30.9C 33.999998 19.357248 24.64275 10 13.1 10L 13 10L 10 10"></path></g></g></g><g id="g-root-tx_selltobu_18jfgbwxd3ua7-stroke" data-item-order="0" transform="translate(602, 392)"></g><g id="g-root-cu_18jfjhoxck4qx-stroke" data-item-order="0" transform="translate(278, 303)"><g id="cu_18jfjhoxck4qx-stroke" fill="none" stroke-linecap="round" stroke-linejoin="round" stroke-miterlimit="4" stroke="#484848" stroke-width="2" stroke-dasharray="5.0, 7.0"><g><path d="M 58 10L 55 10L 54.9 10C 50.611929 10.004962 45.995266 11.578824 41.700001 14.500001C 39.147207 16.234511 36.356002 20.403194 34.000002 26.000001C 31.644001 31.596807 28.852796 35.76549 26.300001 37.500001C 22.004737 40.421177 17.388073 41.995039 13.100001 42L 13 42L 10 42"></path></g></g></g><g id="g-root-cu_1cz91m4xck3ym-stroke" data-item-order="0" transform="translate(506, 303)"><g id="cu_1cz91m4xck3ym-stroke" fill="none" stroke-linecap="round" stroke-linejoin="round" stroke-miterlimit="4" stroke="#484848" stroke-width="2" stroke-dasharray="5.0, 7.0"><g><path d="M 10 10L 13 10L 13.1 10C 16.47715 10.00393 20.199416 10.613028 24.1 11.8C 26.434787 12.503612 29.936878 14.343094 34 16.999999C 38.063122 19.656905 41.565214 21.496387 43.900001 22.199999C 47.800584 23.386973 51.52285 23.996071 54.900001 24.000001L 55 24L 58 24"></path></g></g></g><g id="g-root-tx_capturel_1luvyp8xd3spa-stroke" data-item-order="0" transform="translate(602, 356)"></g><g id="g-root-tx_monetiza_18layr0xck4jm-stroke" data-item-order="0" transform="translate(164, 38)"></g><g id="g-root-cu_1urs0a4xck4js-stroke" data-item-order="0" transform="translate(578, 344)"><g id="cu_1urs0a4xck4js-stroke" fill="none" stroke-linecap="round" stroke-linejoin="round" stroke-miterlimit="4" stroke="#484848" stroke-width="2" stroke-dasharray="5.0, 7.0"><g><path d="M 10 10L 10 22L 10 34L 19 34L 28 34"></path></g></g></g><g id="g-root-cu_1qbyi5oxck5c3-stroke" data-item-order="0" transform="translate(578, 344)"><g id="cu_1qbyi5oxck5c3-stroke" fill="none" stroke-linecap="round" stroke-linejoin="round" stroke-miterlimit="4" stroke="#484848" stroke-width="2" stroke-dasharray="5.0, 7.0"><g><path d="M 10 10L 10 17.5L 10 58C 10.000002 64.627417 15.372585 70 22.000002 69.999999L 22.1 70L 28 70"></path></g></g></g><g id="g-root-tx_ownbusin_qsrwx8xd3thl-stroke" data-item-order="0" transform="translate(98, 410)"></g><g id="g-root-cu_dhbhpoxck5jd-stroke" data-item-order="0" transform="translate(236, 176)"><g id="cu_dhbhpoxck5jd-stroke" fill="none" stroke-linecap="round" stroke-linejoin="round" stroke-miterlimit="4" stroke="#484848" stroke-width="2" stroke-dasharray="5.0, 7.0"><g><path d="M 28 10L 28 22L 28 94C 28.000002 100.627415 22.627419 105.999998 16.000002 105.999998L 15.9 106L 10 106"></path></g></g></g><g id="g-root-ic_prom_4kfjakxck45i-stroke" data-item-order="1000000000" transform="translate(236, 320)"><g id="ic_prom_4kfjakxck45i-stroke" fill="none" stroke-linecap="round" stroke-linejoin="round" stroke-miterlimit="4" stroke="#92bd39" stroke-width="2"><g><path d="M 14.50005 18.68775C 15.880762 18.68775 17.00005 17.568451 17.00005 16.18775C 17.00005 14.807037 15.880762 13.68775 14.50005 13.68775C 13.119337 13.68775 12.00005 14.807037 12.00005 16.18775C 12.00005 17.568451 13.119337 18.68775 14.50005 18.68775ZM 22.37495 24.6875C 23.755625 24.6875 24.875 23.568251 24.875 22.1875C 24.875 20.806787 23.755625 19.6875 22.37495 19.6875C 20.994238 19.6875 19.87495 20.806787 19.87495 22.1875C 19.87495 23.568251 20.994238 24.6875 22.37495 24.6875ZM 28 15.9375C 29.380625 15.9375 30.5 14.818213 30.5 13.4375C 30.5 12.056787 29.380625 10.9375 28 10.9375C 26.619249 10.9375 25.5 12.056787 25.5 13.4375C 25.5 14.818213 26.619249 15.9375 28 15.9375ZM 35.499874 22.8125C 36.880623 22.8125 37.999874 21.693213 37.999874 20.3125C 37.999874 18.931787 36.880623 17.8125 35.499874 17.8125C 34.119125 17.8125 32.999874 18.931787 32.999874 20.3125C 32.999874 21.693213 34.119125 22.8125 35.499874 22.8125ZM 10 10M 16.322788 17.903749L 20.48295 20.551138M 10 10M 29.8885 15.074762L 33.670376 18.604588M 10 10M 23.659876 20.045538L 26.76425 15.60455M 19.24995 28.4375L 23 32.8125L 30.5 32.8125L 34.25 28.4375L 19.24995 28.4375ZM 10 10M 23 32.8125L 24 38.0625C 24.125 38.6875 24.625 39.0625 25.25 39.0625L 28.25 39.0625C 28.875 39.0625 29.375 38.6875 29.5 38.0625L 30.5 32.8125"></path></g></g></g><g id="g-root-tx_leadgene_1hdtiekxd2dxf-stroke" data-item-order="1000000000" transform="translate(602, 305)"></g><g id="g-root-ic_2_142d018xd2fic-stroke" data-item-order="1000000000" transform="translate(566, 302)"><g id="ic_2_142d018xd2fic-stroke" fill="none" stroke-linecap="round" stroke-linejoin="round" stroke-miterlimit="4" stroke="#e0cb15" stroke-width="2"><g><path d="M 12.335 23.120001C 12.335 25.449951 14.223799 27.338751 16.553749 27.338751C 18.883701 27.338751 20.772499 25.449951 20.772499 23.120001C 20.772499 20.790049 18.883701 18.901251 16.553749 18.901251C 14.223799 18.901251 12.335 20.790049 12.335 23.120001M 19.934999 30.009998C 16.899757 28.496737 13.228683 29.183882 10.94625 31.692501M 29.227501 23.120001C 29.227501 25.449951 31.116299 27.338751 33.446251 27.338751C 35.776199 27.338751 37.665001 25.449951 37.665001 23.120001C 37.665001 20.790049 35.776199 18.901251 33.446251 18.901251C 31.116299 18.901251 29.227501 20.790049 29.227501 23.120001M 39.053749 31.692501C 36.767395 29.181505 33.089973 28.497606 30.053749 30.018749M 16.866249 15.78125C 18.297134 12.983198 21.226318 11.274507 24.366249 11.40625C 27.506182 11.274507 30.435368 12.983198 31.866249 15.78125M 28.116249 15.78125L 32.491249 15.78125L 32.491249 11.40625M 26.875 30.15625L 24.331249 30.15625C 23.527973 30.156811 22.837833 30.72674 22.685402 31.515423C 22.53297 32.304108 22.961033 33.090157 23.706249 33.389999L 26.286251 34.422501C 27.031466 34.722343 27.45953 35.508392 27.307098 36.297077C 27.154667 37.085758 26.464527 37.655685 25.661249 37.65625L 23.125 37.65625M 24.997499 30.15625L 24.997499 29.21875M 24.997499 38.59375L 24.997499 37.65625M 29.936251 20.79125C 32.184265 22.394243 34.907387 23.191847 37.665001 23.055M 13 20.79125C 15.248014 22.394243 17.971138 23.191847 20.72875 23.055"></path></g></g></g><g id="g-root-tx_monetiza_144uwdoxcws8z-stroke" data-item-order="1000000000" transform="translate(350, 281)"></g><g id="g-root-ic_netw_dikcq4xcws90-stroke" data-item-order="1000000000" transform="translate(392, 227)"><g id="ic_netw_dikcq4xcws90-stroke" fill="none" stroke-linecap="round" stroke-linejoin="round" stroke-miterlimit="4" stroke="#969696" stroke-width="2"><g><path d="M 39.02 25L 34.728001 25C 33.008789 25.000622 31.515478 26.182915 31.120516 27.856146C 30.725554 29.529375 31.532537 31.254648 33.07 32.024002L 36.970001 33.975998C 38.507462 34.745354 39.314445 36.470627 38.919487 38.143856C 38.524521 39.817085 37.031212 40.999382 35.312 41L 31.02 41M 35.02 25L 35.02 22M 35.02 44L 35.02 41M 44 24.040001L 50.216 17.868M 49 15C 49 17.209139 50.790859 19 53 19C 55.209141 19 57 17.209139 57 15C 57 12.790861 55.209141 11 53 11C 50.790859 11 49 12.790861 49 15ZM 45.924 45.958L 50.153999 50.214001M 49.02 53C 49.02 55.209141 50.81086 57 53.02 57C 55.229137 57 57.02 55.209141 57.02 53C 57.02 50.790859 55.229137 49 53.02 49C 50.81086 49 49.02 50.790859 49.02 53ZM 24 24.040001L 17.785999 17.868M 11 15C 11 17.209139 12.790861 19 15 19C 17.209139 19 19 17.209139 19 15C 19 12.790861 17.209139 11 15 11C 12.790861 11 11 12.790861 11 15ZM 22.077999 45.958L 17.846001 50.214001M 10.98 53C 10.98 55.209141 12.770861 57 14.98 57C 17.189138 57 18.98 55.209141 18.98 53C 18.98 50.790859 17.189138 49 14.98 49C 12.770861 49 10.98 50.790859 10.98 53ZM 43 33L 49 33M 49 33C 49 35.209137 50.790859 37 53 37C 55.209141 37 57 35.209137 57 33C 57 30.790861 55.209141 29 53 29C 50.790859 29 49 30.790861 49 33ZM 25 33L 19 33M 11 33C 11 35.209137 12.790861 37 15 37C 17.209139 37 19 35.209137 19 33C 19 30.790861 17.209139 29 15 29C 12.790861 29 11 30.790861 11 33Z"></path></g></g></g><g id="g-root-tx_featured_3czu4xd11jc-stroke" data-item-order="1000000000" transform="translate(602, 155)"></g><g id="g-root-ic_scal_1ltn0j0xd0zrd-stroke" data-item-order="1000000000" transform="translate(566, 152)"><g id="ic_scal_1ltn0j0xd0zrd-stroke" fill="none" stroke-linecap="round" stroke-linejoin="round" stroke-miterlimit="4" stroke="#ba5de5" stroke-width="2"><g><path d="M 30 24.400002L 30 30.625L 37.5 30.625L 37.5 24.375M 10 10M 28.125 26.25L 32.924999 21.6C 33.396881 21.185442 34.103119 21.185442 34.575001 21.6L 39.375 26.25M 25 15.625L 25 39.375M 21.35 39.375L 28.612501 39.375M 26.862499 13.75C 26.867563 14.504428 26.417006 15.187389 25.721453 15.479612C 25.0259 15.771834 24.222763 15.615587 23.687498 15.083913C 23.152233 14.552239 22.99058 13.750174 23.278111 13.05267C 23.565643 12.355165 24.245556 11.900017 25.000002 11.900001C 26.023769 11.899977 26.855629 12.726254 26.862501 13.75ZM 37.5 21.5L 33.75 11.1375L 30 21.5M 26.699999 12.7375L 35.962502 10.625M 12.4625 25.387501L 16.25 15.1125L 19.7875 24.700001M 10.625 29.6875C 10.625 32.96669 13.283309 35.625 16.5625 35.625C 19.84169 35.625 22.5 32.96669 22.5 29.6875C 22.5 26.40831 19.84169 23.75 16.5625 23.75C 13.283309 23.75 10.625 26.40831 10.625 29.6875M 18.049999 26.725L 16.0375 26.725C 15.446759 26.77169 14.958848 27.20495 14.842632 27.786024C 14.726418 28.367102 15.010159 28.954691 15.537499 29.224998L 17.5875 30.050001C 18.11484 30.320305 18.398582 30.907896 18.282366 31.488972C 18.166151 32.070049 17.67824 32.503307 17.0875 32.549999L 15.075 32.550003M 16.5625 26.725L 16.5625 25.975M 16.5625 33.399998L 16.5625 32.662498M 23.150002 13.55L 14.0375 15.625M 35.962502 10.625L 26.5625 12.7625"></path></g></g></g><g id="g-root-ic_coin_1qa32wcxcis5f-stroke" data-item-order="1000000000" transform="translate(236, 134)"><g id="ic_coin_1qa32wcxcis5f-stroke" fill="none" stroke-linecap="round" stroke-linejoin="round" stroke-miterlimit="4" stroke="#e55753" stroke-width="2"><g><path d="M 20.9375 23.125L 20.9375 16.25C 20.9375 14.869288 19.818213 13.75 18.4375 13.75C 17.056787 13.75 15.9375 14.869288 15.9375 16.25L 15.9375 23.125M 15.9375 19.375L 20.9375 19.375M 35 21.5625L 35 13.125C 35 11.744288 33.880714 10.625 32.5 10.625L 13.125 10.625C 11.744288 10.625 10.625 11.744288 10.625 13.125L 10.625 24.375C 10.625 25.755713 11.744288 26.875 13.125 26.875L 22.375 26.875M 33.75 28.125L 31.208748 28.125C 30.405472 28.125561 29.715332 28.695492 29.562901 29.484173C 29.410469 30.272856 29.838533 31.058905 30.583748 31.358749L 33.16375 32.391251C 33.908966 32.691093 34.337029 33.477142 34.184601 34.265827C 34.032166 35.054508 33.342026 35.624435 32.53875 35.625L 30 35.625M 31.875 36.875L 31.875 35.625M 31.875 28.125L 31.875 26.875M 24.375 31.875C 24.375002 36.017136 27.732864 39.375 31.875 39.375C 36.017136 39.375 39.375 36.017136 39.375 31.875C 39.375 27.732864 36.017136 24.375002 31.875 24.375002C 27.732864 24.375002 24.375002 27.732864 24.375002 31.875M 29.0625 20.625C 29.0625 22.005713 27.943213 23.125 26.5625 23.125L 24.6875 23.125L 24.6875 13.75L 26.5625 13.75C 27.943213 13.75 29.0625 14.869288 29.0625 16.25Z"></path></g></g></g><g id="g-root-tx_displaya_4kfjakxciqrm-stroke" data-item-order="1000000000" transform="translate(122, 137)"></g><g id="g-root-tx_saasserv_8zmkbwxck6j1-stroke" data-item-order="1000000000" transform="translate(26, 323)"></g></g></g><path id="whvwqwdxx1laf" d="M65.283 12.757a.35.35 0 0 0 .584.157l5.203-5.141-6.183 3.523.396 1.461zm-2.216-11.7a.35.35 0 0 0-.522.305v3.111l3.276-1.868-2.754-1.548zm3.728 2.105l-4.25 2.421v2.445l6.391-3.644-2.141-1.222zm4.708 3.303a.35.35 0 0 0 0-.609l-1.592-.9-7.365 4.199v1.782a.35.35 0 0 0 .523.305l8.435-4.777z M44.542 2.513c0-.433.355-.783.792-.783s.792.35.792.783-.355.783-.792.783-.792-.35-.792-.783zm59.171 0c0-.433.355-.783.792-.783s.792.35.792.783-.355.783-.792.783-.792-.35-.792-.783zm-85.951 7.636h-1.27v-.487c-.276.201-.864.609-1.881.609-1.202 0-2.274-.794-2.137-2.078.118-1.106 1.153-1.584 1.848-1.727l2.17-.345c0-.539-.29-.956-1.064-1.006s-1.21.305-1.571 1.017l-1.124-.605c1.218-2.631 5.029-1.764 5.029.414v4.207zm-1.27-2.86c.006.396-.062 1.112-.819 1.59-.587.37-1.841.299-1.903-.395-.049-.555.461-.791.906-.898l1.816-.297zm72.662 2.86h-1.27v-.487c-.276.201-.864.609-1.881.609-1.202 0-2.274-.794-2.137-2.078.118-1.106 1.153-1.584 1.848-1.727l2.17-.345c0-.539-.29-.956-1.064-1.006s-1.21.305-1.571 1.017l-1.124-.605c1.218-2.631 5.029-1.764 5.029.414v4.207zm-1.27-2.86c.006.396-.062 1.112-.82 1.59-.587.37-1.841.299-1.903-.395-.049-.555.461-.791.906-.898l1.816-.297zM99.096 10.149H97.85v-8.45h1.246v4.895l2.68-2.559h1.738l-2.633 2.535 2.715 3.578h-1.556l-2.077-2.707-.867.844v1.863zm6.053-6.114h-1.255v6.113h1.255V4.035zm-59.2 0h-1.255v6.113h1.255V4.035zm5.584 6.113V1.697h1.255v2.695c.361-.346 1-.485 1.47-.485 1.452 0 2.477 1.082 2.457 2.448v3.792h-1.27v-3.68c0-.408-.214-1.339-1.315-1.339-.968 0-1.342.756-1.342 1.339v3.681h-1.255zm-4.76-4.894V4.039h.621a.45.45 0 0 0 .45-.45v-.855h1.251v1.305h1.309v1.215h-1.309v3.109c0 .293.105.664.648.664.365 0 .531-.035.736-.07v1.137s-.361.113-.857.113c-1.398 0-1.777-1.051-1.777-1.788V5.254h-1.071zM36.528 4.039h-1.394l2.191 6.106h1.125l1.234-3.918 1.238 3.918h1.129l2.188-6.106h-1.383l-1.359 3.93-1.256-3.93h-1.124l-1.242 3.957-1.348-3.957zM26.212 7.141c-.02 1.566 1.187 3.129 3.223 3.129 1.566 0 2.383-.918 2.734-1.719L31.172 8c-.315.399-.801 1.094-1.738 1.094-1.145 0-1.825-.781-1.891-1.52h4.625c.074-.284.148-.995-.03-1.559-.336-1.064-1.221-2.102-2.839-2.102s-3.088 1.152-3.088 3.227zm1.363-.75h3.348c-.055-.43-.566-1.301-1.623-1.301a1.79 1.79 0 0 0-1.725 1.301zm-8.758.75c.038 1.758 1.277 3.133 3.145 3.133 1.074 0 1.723-.477 1.961-.672v.547h1.242V1.703h-1.258v2.888c-.414-.36-1.062-.68-1.93-.68-1.91 0-3.198 1.473-3.16 3.23zm1.309-.08c0 1.119.723 1.978 1.836 1.978a1.88 1.88 0 0 0 1.94-1.904c0-1.371-1.011-1.99-1.972-1.99s-1.805.798-1.805 1.916zm76.683-.028C96.771 5.275 95.532 3.9 93.664 3.9c-1.074 0-1.723.477-1.961.672v-.547h-1.242v8.22h1.258V9.583c.414.36 1.063.68 1.93.68 1.91 0 3.198-1.473 3.16-3.23zm-1.309.08c0-1.119-.723-1.978-1.836-1.978a1.88 1.88 0 0 0-1.94 1.904c0 1.371 1.011 1.99 1.972 1.99S95.5 8.231 95.5 7.113zM106.441 10.173V4.036h1.254v.382c.361-.346 1-.485 1.47-.485 1.452 0 2.477 1.082 2.457 2.448v3.792h-1.27V6.492c0-.408-.214-1.339-1.315-1.339-.969 0-1.342.756-1.342 1.339v3.681h-1.254zm-30.383-.021V1.824h1.084l4.215 5.777V1.824h1.32v8.328h-1.094l-4.207-5.796v5.796h-1.319zM5.24 10.149H4V2.377h1.014l2.664 3.597 2.654-3.592h1.03v7.766h-1.256V4.762L7.678 8.068 5.24 4.742v5.407z" transform="translate(698, 464)" fill="#80808088" stroke="none"></path></svg>