<?xml version="1.0" encoding="utf-8" standalone="yes"?>
<!DOCTYPE svg PUBLIC "-//W3C//DTD SVG 1.1//EN" "http://www.w3.org/Graphics/SVG/1.1/DTD/svg11.dtd">
<svg width="912" height="442" viewBox="0 0 912 442" style="fill:none;stroke:none;fill-rule:evenodd;clip-rule:evenodd;stroke-linecap:round;stroke-linejoin:round;stroke-miterlimit:1.5;" version="1.1" xmlns="http://www.w3.org/2000/svg" xmlns:xlink="http://www.w3.org/1999/xlink"><style class="text-font-style fontImports" data-font-family="Roboto">@import url('https://fonts.googleapis.com/css2?family=Roboto:wght@400;700&amp;display=block');</style><g id="items" style="isolation: isolate"><g id="blend" style="mix-blend-mode: normal"><g id="g-root-sy_4_cu_908v3gwj270n-fill" data-item-order="-64506" transform="translate(478, 212)"></g><g id="g-root-sy_3_cu_143lv1owj28eg-fill" data-item-order="-64502" transform="translate(338, 212)"></g><g id="g-root-sy_2_cu_qsrtrgwj26tl-fill" data-item-order="-64498" transform="translate(510, 116)"></g><g id="g-root-sy_1_cu_dhbbe4wj28ei-fill" data-item-order="-64494" transform="translate(278, 116)"></g><g id="g-root-tx_howtomon_1qckw30wio4qo-fill" data-item-order="0" transform="translate(218, 38)"><g id="tx_howtomon_1qckw30wio4qo-fill" stroke="none" fill="#484848"><g><text style="font: bold 25px Roboto, sans-serif; white-space: pre;" font-weight="bold" font-size="25px" font-family="Roboto, sans-serif"><tspan x="27.34" y="48.6" dominant-baseline="ideographic">How to monetize a directory website?</tspan></text></g></g></g><g id="g-root-ic_face_1urrtykwj27er-fill" data-item-order="0" transform="translate(410, 110)"></g><g id="g-root-ic_sear_924dikwimscn-fill" data-item-order="0" transform="translate(290, 128)"></g><g id="g-root-tx_benefits_qsrwx8wimt5a-fill" data-item-order="0" transform="translate(-9.999984741210938, 134)"><g id="tx_benefits_qsrwx8wimt5a-fill" stroke="none" fill="#4e88e7"><g><text style="font: bold 20px Roboto, sans-serif; white-space: pre;" font-weight="bold" font-size="20px" font-family="Roboto, sans-serif"><tspan x="36.36" y="34" dominant-baseline="ideographic">Benefits of Directory Sites</tspan></text></g></g></g><g id="g-root-ic_targ_1ltn0j0wildl0-fill" data-item-order="0" transform="translate(566, 128)"></g><g id="g-root-tx_monetiza_qqa0kswilc77-fill" data-item-order="0" transform="translate(626, 134)"><g id="tx_monetiza_qqa0kswilc77-fill" stroke="none" fill="#3cc583"><g><text style="font: bold 20px Roboto, sans-serif; white-space: pre;" font-weight="bold" font-size="20px" font-family="Roboto, sans-serif"><tspan x="12" y="34" dominant-baseline="ideographic">Monetization Strategies</tspan></text></g></g></g><g id="g-root-tx_understa_1qapgtowimscl-fill" data-item-order="0" transform="translate(14, 170)"><g id="tx_understa_1qapgtowimscl-fill" stroke="none" fill="#484848"><g><text style="font: 20px Roboto, sans-serif; white-space: pre;" font-size="20px" font-family="Roboto, sans-serif"><tspan x="15.96" y="34" dominant-baseline="ideographic">Understand the advantages </tspan><tspan x="44.11" y="58" dominant-baseline="ideographic">of directory websites for </tspan><tspan x="170.13" y="82" dominant-baseline="ideographic">introverts.</tspan></text></g></g></g><g id="g-root-tx_explorev_1unelikwilds2-fill" data-item-order="0" transform="translate(626, 170)"><g id="tx_explorev_1unelikwilds2-fill" stroke="none" fill="#484848"><g><text style="font: 20px Roboto, sans-serif; white-space: pre;" font-size="20px" font-family="Roboto, sans-serif"><tspan x="12" y="34" dominant-baseline="ideographic">Explore various methods to </tspan><tspan x="12" y="58" dominant-baseline="ideographic">generate income from </tspan><tspan x="12" y="82" dominant-baseline="ideographic">directory sites.</tspan></text></g></g></g><g id="g-root-tx_timingwi_hrimwcwijz7k-fill" data-item-order="0" transform="translate(170, 266)"><g id="tx_timingwi_hrimwcwijz7k-fill" stroke="none" fill="#e0cb15"><g><text style="font: bold 20px Roboto, sans-serif; white-space: pre;" font-weight="bold" font-size="20px" font-family="Roboto, sans-serif"><tspan x="14.58" y="34" dominant-baseline="ideographic">Timing Windows</tspan></text></g></g></g><g id="g-root-ic_time_13zv3oswijy89-fill" data-item-order="0" transform="translate(350, 260)"></g><g id="g-root-ic_idea_vb388cwj3nra-fill" data-item-order="0" transform="translate(506, 260)"></g><g id="g-root-tx_introver_1d2d8q4wj3le5-fill" data-item-order="0" transform="translate(566, 266)"><g id="tx_introver_1d2d8q4wj3le5-fill" stroke="none" fill="#de8431"><g><text style="font: bold 20px Roboto, sans-serif; white-space: pre;" font-weight="bold" font-size="20px" font-family="Roboto, sans-serif"><tspan x="12" y="33.2" dominant-baseline="ideographic">Introvert's Blueprint</tspan></text></g></g></g><g id="g-root-tx_identify_1uu9qb0wj51qn-fill" data-item-order="0" transform="translate(74, 302)"><g id="tx_identify_1uu9qb0wj51qn-fill" stroke="none" fill="#484848"><g><text style="font: 20px Roboto, sans-serif; white-space: pre;" font-size="20px" font-family="Roboto, sans-serif"><tspan x="43.96" y="34" dominant-baseline="ideographic">Identify optimal times to </tspan><tspan x="14.55" y="58" dominant-baseline="ideographic">launch and grow a directory </tspan><tspan x="185.53" y="82" dominant-baseline="ideographic">website.</tspan></text></g></g></g><g id="g-root-tx_developa_1lw4tpowj3ll8-fill" data-item-order="0" transform="translate(566, 302)"><g id="tx_developa_1lw4tpowj3ll8-fill" stroke="none" fill="#484848"><g><text style="font: 20px Roboto, sans-serif; white-space: pre;" font-size="20px" font-family="Roboto, sans-serif"><tspan x="12" y="33.2" dominant-baseline="ideographic">Develop a tailored plan for </tspan><tspan x="12" y="57.2" dominant-baseline="ideographic">introverts to achieve financial </tspan><tspan x="12" y="81.2" dominant-baseline="ideographic">independence.</tspan></text></g></g></g><g id="g-root-sy_4_cu_908v3gwj270n-stroke" data-item-order="-64506" transform="translate(478, 212)"><g id="sy_4_cu_908v3gwj270n-stroke" fill="none" stroke-linecap="round" stroke-linejoin="round" stroke-miterlimit="4" stroke="#484848" stroke-width="2"><g><path d="M 81.4692 86.4636C 81.8154 87.7506 82 89.1037 82 90.5C 82 99.0604 75.0604 106 66.5 106C 63.4334 106 60.5749 105.1095 58.1688 103.5729C 56.4958 104.4813 54.5612 105 52.5 105C 49.2123 105 46.2468 103.6804 44.1509 101.5646C 43.1468 101.8485 42.0904 102 41 102C 34.3726 102 29 96.4036 29 89.5C 29 88.3742 29.1429 87.2832 29.4107 86.2456C 27.3145 84.3259 26 81.5665 26 78.5C 26 74.8998 27.8119 71.7228 30.5736 69.8312C 29.5692 67.9429 29 65.7879 29 63.5C 29 56.0442 35.0442 50 42.5 50C 43.0365 50 43.5656 50.0313 44.0858 50.0922C 47.7125 47.5181 52.1748 46 57 46C 62.757 46 67.9975 48.161 71.9185 51.6983C 73.0238 51.2481 74.2329 51 75.5 51C 80.7467 51 85 55.2533 85 60.5C 85 62.8989 84.1108 65.0901 82.6441 66.7621C 84.7332 69.2273 86 72.4602 86 76C 86 80.1617 84.249 83.8993 81.4692 86.4636Z"></path></g></g><g id="sy_4_cu_908v3gwj270n-stroke" fill="none" stroke-linecap="round" stroke-linejoin="round" stroke-miterlimit="4" stroke="#484848" stroke-width="2"><g><path d="M 18 34C 18 38.418278 21.581722 42 26 42C 30.418278 42 34 38.418278 34 34C 34 29.581722 30.418278 26 26 26C 21.581722 26 18 29.581722 18 34M 10 14C 10 11.790863 11.790863 10 14 10C 16.209137 10 18 11.790863 18 14C 18 16.209137 16.209137 18 14 18C 11.790863 18 10 16.209137 10 14"></path></g></g></g><g id="g-root-sy_3_cu_143lv1owj28eg-stroke" data-item-order="-64502" transform="translate(338, 212)"><g id="sy_3_cu_143lv1owj28eg-stroke" fill="none" stroke-linecap="round" stroke-linejoin="round" stroke-miterlimit="4" stroke="#484848" stroke-width="2"><g><path d="M 28.2735 49.6985C 27.1024 49.2473 25.8301 49 24.5 49C 18.701 49 14 53.701 14 59.5C 14 60.4121 14.1163 61.297 14.3349 62.1407C 11.6359 65.3079 10 69.4575 10 74C 10 79.6905 12.5673 84.7643 16.5755 88.0628C 16.2026 89.1397 16 90.2962 16 91.5C 16 97.299 20.701 102 26.5 102C 27.2901 102 28.0599 101.9127 28.8001 101.7473C 31.3536 104.3652 34.9788 106 39 106C 43.5014 106 47.5067 103.9514 50.0677 100.7683C 51.6517 102.1577 53.7275 103 56 103C 60.9706 103 65 98.9706 65 94C 65 93.1394 64.8792 92.3069 64.6536 91.5188C 67.9818 87.6447 70 82.5635 70 77C 70 72.6626 68.7733 68.6183 66.6556 65.2107C 66.8812 64.1763 67 63.102 67 62C 67 53.7157 60.2843 47 52 47C 50.2108 47 48.4947 47.3133 46.9037 47.8879C 44.5425 46.6823 41.8533 46 39 46C 34.9329 46 31.1993 47.3862 28.2735 49.6985Z"></path></g></g><g id="sy_3_cu_143lv1owj28eg-stroke" fill="none" stroke-linecap="round" stroke-linejoin="round" stroke-miterlimit="4" stroke="#484848" stroke-width="2"><g><path d="M 62 34C 62 38.418278 65.581722 42 70 42C 74.418278 42 78 38.418278 78 34C 78 29.581722 74.418278 26 70 26C 65.581722 26 62 29.581722 62 34M 78 14C 78 11.790863 79.790863 10 82 10C 84.209137 10 86 11.790863 86 14C 86 16.209137 84.209137 18 82 18C 79.790863 18 78 16.209137 78 14"></path></g></g></g><g id="g-root-sy_2_cu_qsrtrgwj26tl-stroke" data-item-order="-64498" transform="translate(510, 116)"><g id="sy_2_cu_qsrtrgwj26tl-stroke" fill="none" stroke-linecap="round" stroke-linejoin="round" stroke-miterlimit="4" stroke="#484848" stroke-width="2"><g><path d="M 83 70C 87.9502 70 92.5185 68.4023 96.1944 65.7057C 97.7818 66.5326 99.5863 67 101.5 67C 107.8513 67 113 61.8513 113 55.5C 113 52.5141 111.8621 49.794 109.9962 47.7498C 112.4346 45.827 114 42.8463 114 39.5C 114 37.0802 113.1815 34.8516 111.8062 33.076C 111.9338 32.2366 112 31.3763 112 30.5C 112 21.3873 104.8366 14 96 14C 95.0095 14 94.04 14.0928 93.0993 14.2705C 90.0114 11.6132 85.9496 10 81.5 10C 76.9328 10 72.7743 11.6996 69.658 14.4832C 68.6613 14.1693 67.6004 14 66.5 14C 60.701 14 56 18.701 56 24.5C 56 27.0722 56.9249 29.4283 58.4602 31.2541C 56.9145 33.4174 56 36.0976 56 39C 56 41.3016 56.5751 43.4636 57.5841 45.3388C 55.3594 47.7456 54 50.9641 54 54.5C 54 61.9558 60.0442 68 67.5 68C 69.1219 68 70.677 67.714 72.1175 67.1897C 75.3267 68.9782 79.0413 70 83 70Z"></path></g></g><g id="sy_2_cu_qsrtrgwj26tl-stroke" fill="none" stroke-linecap="round" stroke-linejoin="round" stroke-miterlimit="4" stroke="#484848" stroke-width="2"><g><path d="M 28 40C 28 44.418278 31.581722 48 36 48C 40.418278 48 44 44.418278 44 40C 44 35.581722 40.418278 32 36 32C 31.581722 32 28 35.581722 28 40M 10 40C 10 37.790863 11.790863 36 14 36C 16.209167 36 18 37.790863 18 40C 18 42.209137 16.209167 44 14 44C 11.790863 44 10 42.209137 10 40"></path></g></g></g><g id="g-root-sy_1_cu_dhbbe4wj28ei-stroke" data-item-order="-64494" transform="translate(278, 116)"><g id="sy_1_cu_dhbbe4wj28ei-stroke" fill="none" stroke-linecap="round" stroke-linejoin="round" stroke-miterlimit="4" stroke="#484848" stroke-width="2"><g><path d="M 20.598 19.0005C 20.5653 19.0002 20.5327 19 20.5 19C 14.701 19 10 23.701 10 29.5C 10 32.5738 11.3208 35.3392 13.4259 37.2594C 13.1475 38.4594 13 39.7119 13 41C 13 41.7449 13.0493 42.4779 13.1448 43.1957C 11.7875 45.3013 11 47.8087 11 50.5C 11 57.9558 17.0442 64 24.5 64C 24.8465 64 25.19 63.9869 25.5299 63.9613C 29.172 67.6819 34.3084 70 40 70C 45.6415 70 50.7374 67.7226 54.3734 64.0594C 55.6214 64.6621 57.0212 65 58.5 65C 63.7467 65 68 60.7467 68 55.5C 68 52.6285 66.726 50.0545 64.7124 48.3125C 67.9476 45.4694 70 41.2324 70 36.5C 70 32.4248 68.4781 28.717 65.9895 25.9503C 65.9965 25.801 66 25.6509 66 25.5C 66 20.2533 61.7467 16 56.5 16C 55.9205 16 55.3531 16.0519 54.8022 16.1513C 50.6815 12.3382 45.1199 10 39 10C 31.475 10 24.7941 13.5352 20.598 19.0005Z"></path></g></g><g id="sy_1_cu_dhbbe4wj28ei-stroke" fill="none" stroke-linecap="round" stroke-linejoin="round" stroke-miterlimit="4" stroke="#484848" stroke-width="2"><g><path d="M 80 40C 80 44.418278 83.581722 48 88 48C 92.418278 48 96 44.418278 96 40C 96 35.581722 92.418278 32 88 32C 83.581722 32 80 35.581722 80 40M 106 40C 106 37.790863 107.790863 36 110 36C 112.209137 36 114 37.790863 114 40C 114 42.209137 112.209137 44 110 44C 107.790863 44 106 42.209137 106 40"></path></g></g></g><g id="g-root-tx_howtomon_1qckw30wio4qo-stroke" data-item-order="0" transform="translate(218, 38)"></g><g id="g-root-ic_face_1urrtykwj27er-stroke" data-item-order="0" transform="translate(410, 110)"><g id="ic_face_1urrtykwj27er-stroke" fill="none" stroke-linecap="round" stroke-linejoin="round" stroke-miterlimit="4" stroke="#808080" stroke-width="2"><g><path d="M 46.599998 39.681999C 43.599998 36.681999 37.599998 35.181999 34.599998 38.181999M 16.9 45.681999C 16.6 44.482002 16.6 43.281998 16.6 41.781998C 16.6 25.581999 29.799999 12.382 46 12.382C 62.199997 12.382 75.399994 25.581999 75.399994 41.781998C 75.399994 52.582001 69.699997 61.882004 61 66.981995M 40.449997 77.800003C 46.449997 75.399994 45.324997 70.111 44.125 65.311005L 53.677002 61.612C 55.891281 60.755096 57.049278 58.316589 56.314003 56.059002L 56.313999 56.058998C 55.93375 54.891376 55.08989 53.931606 53.980541 53.405022C 52.871193 52.878433 51.594067 52.831413 50.449001 53.275002L 32.875 60.084999C 31.375 60.685001 29.575001 59.485001 29.575001 57.985001L 29.458 55.144001C 29.410076 53.986492 28.88414 52.900726 28.005583 52.145561C 27.127028 51.390404 25.974579 51.03352 24.823002 51.160004L 24.823 51.16C 22.704519 51.393932 21.100885 53.183647 21.1 55.315002L 21.1 67.584999C 21.1 75.385002 28.299999 81.084999 35.800003 79.284996C 35.800003 79.284996 38.949997 78.399994 40.449997 77.800003ZM 31.825001 27.681999C 31.20368 27.681999 30.700001 27.178322 30.700001 26.556999C 30.700001 25.93568 31.20368 25.431999 31.825001 25.431999M 31.825001 27.681999C 32.44632 27.681999 32.950001 27.178322 32.950001 26.556999C 32.950001 25.93568 32.44632 25.431999 31.825001 25.431999M 47.800003 27.681999C 47.17868 27.681999 46.675003 27.178322 46.675003 26.556999C 46.675003 25.93568 47.17868 25.431999 47.800003 25.431999M 47.800003 27.681999C 48.421322 27.681999 48.925003 27.178322 48.925003 26.556999C 48.925003 25.93568 48.421322 25.431999 47.800003 25.431999"></path></g></g></g><g id="g-root-ic_sear_924dikwimscn-stroke" data-item-order="0" transform="translate(290, 128)"><g id="ic_sear_924dikwimscn-stroke" fill="none" stroke-linecap="round" stroke-linejoin="round" stroke-miterlimit="4" stroke="#4e88e7" stroke-width="2"><g><path d="M 40.375 20.125L 40.375 14.125C 40.375 12.475 39.025002 11.125 37.375 11.125L 14.125 11.125C 12.475 11.125 11.125 12.475 11.125 14.125L 11.125 20.125M 40.375 20.125L 11.125 20.125M 40.375 20.125L 30.625 20.125M 40.375 20.125L 40.375 25.674999M 11.125 20.125L 11.125 34.824997C 11.125 36.474998 12.475 37.824997 14.125 37.824997L 20.875 37.824997M 11.125 20.125L 20.875 20.125M 20.875 20.125L 20.875 37.824997M 20.875 20.125L 30.625 20.125M 20.875 37.824997L 25.075001 37.824997M 11.125 29.125L 26.875 29.125M 30.625 20.125L 30.625 25.674999M 10 10M 44.875 44.875149L 41.097847 41.098148M 43.074997 36.324997C 43.074997 40.052948 40.052948 43.074997 36.324997 43.074997C 32.59705 43.074997 29.575001 40.052948 29.575001 36.324997C 29.575001 32.597198 32.59705 29.575001 36.324997 29.575001C 40.052948 29.575001 43.074997 32.597198 43.074997 36.324997Z"></path></g></g></g><g id="g-root-tx_benefits_qsrwx8wimt5a-stroke" data-item-order="0" transform="translate(-9.999984741210938, 134)"></g><g id="g-root-ic_targ_1ltn0j0wildl0-stroke" data-item-order="0" transform="translate(566, 128)"><g id="ic_targ_1ltn0j0wildl0-stroke" fill="none" stroke-linecap="round" stroke-linejoin="round" stroke-miterlimit="4" stroke="#3cc583" stroke-width="2"><g><path d="M 28 11.503L 28 18.253M 11.5 28.003L 18.25 28.003M 28 44.503002L 28 37.753002M 44.5 28.003L 37.75 28.003M 16 28.003C 16 34.630417 21.372583 40.003002 28 40.003002C 34.627419 40.003002 40 34.630417 40 28.003C 40 21.375584 34.627419 16.003 28 16.003C 21.372583 16.003 16 21.375584 16 28.003ZM 28 23.503L 28 22.003M 30.25 23.5L 27.2005 23.5C 26.236567 23.500673 25.4084 24.184589 25.225481 25.131008C 25.042564 26.077425 25.55624 27.020687 26.4505 27.380501L 29.546501 28.618C 30.442837 28.976566 30.958414 29.920982 30.775286 30.868851C 30.592159 31.816717 29.761894 32.501118 28.796501 32.5L 25.75 32.5M 28 34.003002L 28 32.502998"></path></g></g></g><g id="g-root-tx_monetiza_qqa0kswilc77-stroke" data-item-order="0" transform="translate(626, 134)"></g><g id="g-root-tx_understa_1qapgtowimscl-stroke" data-item-order="0" transform="translate(14, 170)"></g><g id="g-root-tx_explorev_1unelikwilds2-stroke" data-item-order="0" transform="translate(626, 170)"></g><g id="g-root-tx_timingwi_hrimwcwijz7k-stroke" data-item-order="0" transform="translate(170, 266)"></g><g id="g-root-ic_time_13zv3oswijy89-stroke" data-item-order="0" transform="translate(350, 260)"><g id="ic_time_13zv3oswijy89-stroke" fill="none" stroke-linecap="round" stroke-linejoin="round" stroke-miterlimit="4" stroke="#e0cb15" stroke-width="2"><g><path d="M 23.685999 36.047501L 13.8415 36.047501C 12.147952 36.047501 10.774828 34.675049 10.774 32.981499L 10.774 13.816C 10.774828 12.122453 12.147952 10.75 13.8415 10.75L 36.8395 10.75C 38.532806 10.75 39.905502 12.122695 39.905502 13.816L 39.905502 23.782M 10.774 16.738001L 39.905502 16.738001M 10.774 29.462502L 24.9175 29.462502M 10.774 23.110001L 39.905502 23.110001M 22.6735 16.738001L 22.6735 36.047501M 31.203999 16.738001L 31.203999 23.782M 36.026501 45.25C 41.107243 45.25 45.225998 41.131241 45.225998 36.050499C 45.225998 30.969755 41.107243 26.850998 36.026501 26.850998C 30.945755 26.850998 26.827 30.969755 26.827 36.050499C 26.827 41.131241 30.945755 45.249996 36.026501 45.249996ZM 41.0695 36.053497L 36.026501 36.053497L 36.026501 30.803501"></path></g></g></g><g id="g-root-ic_idea_vb388cwj3nra-stroke" data-item-order="0" transform="translate(506, 260)"><g id="ic_idea_vb388cwj3nra-stroke" fill="none" stroke-linecap="round" stroke-linejoin="round" stroke-miterlimit="4" stroke="#de8431" stroke-width="2"><g><path d="M 45.25 28.75L 45.25 44.5C 45.25 44.914215 44.914215 45.25 44.5 45.25L 11.5 45.25C 11.085787 45.25 10.75 44.914215 10.75 44.5L 10.75 19C 10.75 18.585787 11.085787 18.25 11.5 18.25L 20.5 18.25M 22.75 45.25L 22.75 41.5C 22.75 41.085785 22.414213 40.75 22 40.75L 16 40.75C 15.585787 40.75 15.25 41.085785 15.25 41.5L 15.25 45.25M 10.75 27.25L 17.5 27.25C 17.914213 27.25 18.25 26.914213 18.25 26.5L 18.25 22M 45.25 34.75L 39.25 34.748501M 17.5 36.248501L 10.75 36.248501M 45.25 39.25L 40 39.25C 39.585785 39.25 39.25 39.585785 39.25 40L 39.25 45.25M 28.75 35.5L 28.75 32.5C 28.75 32.085785 28.414213 31.75 28 31.75L 10.75 31.75M 28.75 45.248501L 28.75 40.748501M 39.25 27.248499L 34.75 27.248499M 41.5 19C 41.5 16.514719 39.485283 14.5 37 14.5C 34.514717 14.5 32.5 16.514719 32.5 19C 32.53405 20.559944 33.389603 21.985863 34.75 22.75L 34.75 24.25L 39.25 24.25L 39.25 22.75C 40.609962 21.985416 41.465351 20.559771 41.5 19ZM 37 10.7485L 37 12.2485M 42.8335 13.165L 41.772999 14.227M 45.25 18.25L 43.75 18.25M 31.1665 13.165L 32.227001 14.227M 28.75 18.248501L 30.25 18.25M 34.75 30.248499L 39.25 30.248499"></path></g></g></g><g id="g-root-tx_introver_1d2d8q4wj3le5-stroke" data-item-order="0" transform="translate(566, 266)"></g><g id="g-root-tx_identify_1uu9qb0wj51qn-stroke" data-item-order="0" transform="translate(74, 302)"></g><g id="g-root-tx_developa_1lw4tpowj3ll8-stroke" data-item-order="0" transform="translate(566, 302)"></g></g></g><path id="w18lasctz11dz6" d="M65.283 12.757a.35.35 0 0 0 .584.157l5.203-5.141-6.183 3.523.396 1.461zm-2.216-11.7a.35.35 0 0 0-.522.305v3.111l3.276-1.868-2.754-1.548zm3.728 2.105l-4.25 2.421v2.445l6.391-3.644-2.141-1.222zm4.708 3.303a.35.35 0 0 0 0-.609l-1.592-.9-7.365 4.199v1.782a.35.35 0 0 0 .523.305l8.435-4.777z M44.542 2.513c0-.433.355-.783.792-.783s.792.35.792.783-.355.783-.792.783-.792-.35-.792-.783zm59.171 0c0-.433.355-.783.792-.783s.792.35.792.783-.355.783-.792.783-.792-.35-.792-.783zm-85.951 7.636h-1.27v-.487c-.276.201-.864.609-1.881.609-1.202 0-2.274-.794-2.137-2.078.118-1.106 1.153-1.584 1.848-1.727l2.17-.345c0-.539-.29-.956-1.064-1.006s-1.21.305-1.571 1.017l-1.124-.605c1.218-2.631 5.029-1.764 5.029.414v4.207zm-1.27-2.86c.006.396-.062 1.112-.819 1.59-.587.37-1.841.299-1.903-.395-.049-.555.461-.791.906-.898l1.816-.297zm72.662 2.86h-1.27v-.487c-.276.201-.864.609-1.881.609-1.202 0-2.274-.794-2.137-2.078.118-1.106 1.153-1.584 1.848-1.727l2.17-.345c0-.539-.29-.956-1.064-1.006s-1.21.305-1.571 1.017l-1.124-.605c1.218-2.631 5.029-1.764 5.029.414v4.207zm-1.27-2.86c.006.396-.062 1.112-.82 1.59-.587.37-1.841.299-1.903-.395-.049-.555.461-.791.906-.898l1.816-.297zM99.096 10.149H97.85v-8.45h1.246v4.895l2.68-2.559h1.738l-2.633 2.535 2.715 3.578h-1.556l-2.077-2.707-.867.844v1.863zm6.053-6.114h-1.255v6.113h1.255V4.035zm-59.2 0h-1.255v6.113h1.255V4.035zm5.584 6.113V1.697h1.255v2.695c.361-.346 1-.485 1.47-.485 1.452 0 2.477 1.082 2.457 2.448v3.792h-1.27v-3.68c0-.408-.214-1.339-1.315-1.339-.968 0-1.342.756-1.342 1.339v3.681h-1.255zm-4.76-4.894V4.039h.621a.45.45 0 0 0 .45-.45v-.855h1.251v1.305h1.309v1.215h-1.309v3.109c0 .293.105.664.648.664.365 0 .531-.035.736-.07v1.137s-.361.113-.857.113c-1.398 0-1.777-1.051-1.777-1.788V5.254h-1.071zM36.528 4.039h-1.394l2.191 6.106h1.125l1.234-3.918 1.238 3.918h1.129l2.188-6.106h-1.383l-1.359 3.93-1.256-3.93h-1.124l-1.242 3.957-1.348-3.957zM26.212 7.141c-.02 1.566 1.187 3.129 3.223 3.129 1.566 0 2.383-.918 2.734-1.719L31.172 8c-.315.399-.801 1.094-1.738 1.094-1.145 0-1.825-.781-1.891-1.52h4.625c.074-.284.148-.995-.03-1.559-.336-1.064-1.221-2.102-2.839-2.102s-3.088 1.152-3.088 3.227zm1.363-.75h3.348c-.055-.43-.566-1.301-1.623-1.301a1.79 1.79 0 0 0-1.725 1.301zm-8.758.75c.038 1.758 1.277 3.133 3.145 3.133 1.074 0 1.723-.477 1.961-.672v.547h1.242V1.703h-1.258v2.888c-.414-.36-1.062-.68-1.93-.68-1.91 0-3.198 1.473-3.16 3.23zm1.309-.08c0 1.119.723 1.978 1.836 1.978a1.88 1.88 0 0 0 1.94-1.904c0-1.371-1.011-1.99-1.972-1.99s-1.805.798-1.805 1.916zm76.683-.028C96.771 5.275 95.532 3.9 93.664 3.9c-1.074 0-1.723.477-1.961.672v-.547h-1.242v8.22h1.258V9.583c.414.36 1.063.68 1.93.68 1.91 0 3.198-1.473 3.16-3.23zm-1.309.08c0-1.119-.723-1.978-1.836-1.978a1.88 1.88 0 0 0-1.94 1.904c0 1.371 1.011 1.99 1.972 1.99S95.5 8.231 95.5 7.113zM106.441 10.173V4.036h1.254v.382c.361-.346 1-.485 1.47-.485 1.452 0 2.477 1.082 2.457 2.448v3.792h-1.27V6.492c0-.408-.214-1.339-1.315-1.339-.969 0-1.342.756-1.342 1.339v3.681h-1.254zm-30.383-.021V1.824h1.084l4.215 5.777V1.824h1.32v8.328h-1.094l-4.207-5.796v5.796h-1.319zM5.24 10.149H4V2.377h1.014l2.664 3.597 2.654-3.592h1.03v7.766h-1.256V4.762L7.678 8.068 5.24 4.742v5.407z" transform="translate(786, 418)" fill="#80808088" stroke="none"></path></svg>